<svg width="28" height="28" viewBox="0 0 28 28" fill="none" xmlns="http://www.w3.org/2000/svg">
<g filter="url(#filter0_d_74_8)">
<path fill-rule="evenodd" clip-rule="evenodd" d="M20.735 5.27499C21.655 5.09299 23.22 4.46199 24 3.99899C23.699 4.94299 22.514 6.13499 21.68 6.63499C22.497 6.53699 23.275 6.32099 24 5.99899C23.458 6.80899 22.773 7.51999 21.983 8.08999C21.986 8.15599 21.989 8.28299 21.992 8.41899C21.992 8.43249 21.994 8.44574 21.996 8.45899C21.998 8.47224 22 8.48549 22 8.49899C22 8.50799 21.9988 8.51674 21.9975 8.52549C21.9963 8.53424 21.995 8.54299 21.995 8.55199C21.998 8.73299 22 8.91299 22 8.99899C22 14.337 17.777 20 10.347 20C8.065 20 5.788 19.145 4 17.999H4.964C7.794 17.999 8.753 17.597 10.135 16.513C8.368 16.481 6.514 15.579 6 13.974C6.246 14.02 7.166 14.139 7.426 14.139C7.795 14.139 8.551 14.117 8.926 13.896C7.078 13.525 5 12.192 5 10.234V10.183C5.563 10.647 6.178 10.8 6.759 10.8C7.119 10.8 7.465 10.742 7.779 10.661C6.074 9.80799 4.979 8.43199 4.979 7.03099C4.979 6.28899 5.066 5.49899 5.265 4.99899C7.095 7.24299 9.647 8.99899 13 8.99899C12.9924 8.91036 12.9953 8.76755 12.9978 8.6446C12.998 8.63777 12.9981 8.63101 12.9983 8.62432C12.9992 8.57747 13 8.53425 13 8.49899C13 6.01399 15.015 3.99899 17.5 3.99899C18.733 3.99899 19.847 4.49599 20.66 5.29799C20.6724 5.29466 20.6839 5.29087 20.6954 5.28706C20.7081 5.28287 20.7209 5.27866 20.735 5.27499Z" fill="#310A90"/>
</g>
<defs>
<filter id="filter0_d_74_8" x="-2" y="0" width="32" height="32" filterUnits="userSpaceOnUse" color-interpolation-filters="sRGB">
<feFlood flood-opacity="0" result="BackgroundImageFix"/>
<feColorMatrix in="SourceAlpha" type="matrix" values="0 0 0 0 0 0 0 0 0 0 0 0 0 0 0 0 0 0 127 0" result="hardAlpha"/>
<feOffset dy="4"/>
<feGaussianBlur stdDeviation="2"/>
<feComposite in2="hardAlpha" operator="out"/>
<feColorMatrix type="matrix" values="0 0 0 0 0 0 0 0 0 0 0 0 0 0 0 0 0 0 0.25 0"/>
<feBlend mode="normal" in2="BackgroundImageFix" result="effect1_dropShadow_74_8"/>
<feBlend mode="normal" in="SourceGraphic" in2="effect1_dropShadow_74_8" result="shape"/>
</filter>
</defs>
</svg>
